<?xml version="1.0" standalone="no"?>
<!DOCTYPE svg PUBLIC "-//W3C//DTD SVG 20010904//EN"
 "http://www.w3.org/TR/2001/REC-SVG-20010904/DTD/svg10.dtd">
<svg version="1.0" xmlns="http://www.w3.org/2000/svg"
 width="2000.000000pt" height="2000.000000pt" viewBox="0 0 2000.000000 2000.000000"
 preserveAspectRatio="xMidYMid meet">
<metadata>
Created by potrace 1.16, written by Peter Selinger 2001-2019
</metadata>
<g transform="translate(0.000000,2000.000000) scale(0.100000,-0.100000)"
fill="#000000" stroke="none">
<path d="M18250 19485 c-410 -87 -947 -428 -1727 -1097 -504 -433 -1035 -926
-2189 -2034 -592 -569 -597 -574 -620 -574 -37 -1 -3589 464 -3597 470 -4 3
112 157 258 341 335 423 369 487 368 699 0 170 -54 310 -159 417 -230 235
-591 174 -938 -156 -53 -51 -947 -1078 -978 -1124 -4 -6 -470 76 -1210 213
-661 122 -1204 223 -1205 224 -1 1 127 150 283 331 157 182 297 350 312 375
23 38 27 58 30 140 5 110 -11 187 -58 289 -68 145 -182 265 -310 325 -89 42
-224 49 -329 17 -127 -39 -178 -83 -809 -700 -451 -441 -600 -581 -618 -581
-20 0 -2108 284 -2279 310 -249 38 -556 12 -774 -64 -89 -31 -218 -99 -290
-152 -65 -48 -874 -895 -864 -904 5 -4 89 -34 188 -68 803 -271 1972 -689
2895 -1034 2299 -859 3778 -1508 4575 -2005 66 -42 190 -125 277 -185 674
-471 1038 -925 1088 -1355 32 -286 -121 -639 -455 -1048 -334 -409 -723 -812
-2219 -2300 -1121 -1114 -1323 -1311 -1349 -1313 -85 -10 -1040 89 -2032 209
-706 85 -1173 150 -1500 206 -115 21 -223 37 -240 37 -24 1 -151 -88 -652
-454 -342 -250 -622 -459 -622 -465 0 -5 754 -435 1675 -954 1016 -574 1673
-950 1670 -957 -2 -6 -122 -195 -266 -419 -144 -223 -260 -409 -257 -411 2 -2
210 92 463 209 l459 214 31 -56 c119 -213 1810 -3222 1824 -3244 l17 -29 245
329 c397 534 615 845 668 955 l27 56 -49 339 c-264 1840 -435 3235 -409 3328
4 16 1968 1916 3001 2903 65 63 321 253 495 369 508 339 961 579 1261 669 73
22 115 27 236 31 278 10 485 -35 721 -154 365 -186 675 -544 861 -996 20 -48
651 -1822 1401 -3942 751 -2120 1371 -3869 1377 -3885 l13 -30 380 331 c209
182 404 354 433 382 153 150 258 378 298 649 19 130 14 408 -10 538 -177 967
-336 1920 -366 2195 l-11 99 168 171 c93 93 339 343 549 555 398 403 429 436
514 563 255 382 207 778 -110 894 -117 43 -247 38 -385 -16 -94 -36 -124 -57
-510 -354 -181 -140 -331 -254 -332 -252 -2 1 -102 550 -223 1221 -172 956
-217 1221 -207 1230 135 122 1081 1021 1131 1075 276 299 340 629 164 856
-137 179 -423 229 -625 111 -21 -13 -213 -168 -426 -346 -214 -178 -391 -321
-394 -319 -5 6 -513 3669 -513 3706 0 27 -23 3 595 641 1161 1199 1725 1807
2163 2333 556 669 853 1151 933 1520 24 111 26 286 4 372 -38 148 -132 283
-267 386 -156 117 -285 160 -482 158 -67 0 -150 -7 -186 -14z" fill="white"/>
</g>
</svg>
