<?xml version="1.0" standalone="no"?>
<!DOCTYPE svg PUBLIC "-//W3C//DTD SVG 20010904//EN"
 "http://www.w3.org/TR/2001/REC-SVG-20010904/DTD/svg10.dtd">
<svg version="1.0" xmlns="http://www.w3.org/2000/svg"
 width="900.000000pt" height="765.000000pt" viewBox="0 0 900.000000 765.000000"
 preserveAspectRatio="xMidYMid meet">
<metadata>
Created by potrace 1.16, written by Peter Selinger 2001-2019
</metadata>
<g transform="translate(0.000000,765.000000) scale(0.100000,-0.100000)"
fill="#000000" stroke="none">
<path d="M4845 7636 c-174 -33 -339 -93 -477 -172 l-76 -44 -75 34 c-191 88
-378 127 -604 127 -263 -1 -473 -53 -696 -175 -169 -92 -354 -251 -452 -389
l-40 -56 -110 -1 c-349 -1 -668 -120 -940 -351 -199 -168 -342 -384 -429 -651
l-43 -130 -75 -38 c-404 -203 -688 -575 -785 -1030 -27 -129 -25 -460 4 -590
131 -584 565 -1017 1146 -1142 149 -32 447 -32 594 0 141 31 258 73 393 144
l115 60 68 -42 c129 -78 300 -142 473 -177 123 -24 404 -24 527 0 167 34 377
115 497 194 l45 30 88 -83 c48 -46 129 -111 180 -144 82 -55 146 -89 394 -206
40 -19 110 -62 155 -96 267 -198 461 -503 551 -867 20 -84 21 -110 24 -964 l4
-877 264 0 265 0 0 848 c0 489 4 895 10 962 34 378 165 686 385 905 81 80 134
120 322 243 207 136 334 267 417 432 41 83 85 215 74 226 -3 3 -50 14 -104 26
-73 15 -135 20 -234 20 -149 0 -238 -15 -381 -64 -106 -35 -142 -33 -194 13
-72 64 -66 172 14 224 45 30 164 70 289 97 140 31 405 31 547 0 54 -12 101
-19 103 -17 2 2 -1 50 -7 107 -29 267 -130 489 -308 678 -95 101 -182 167
-304 230 -163 84 -342 130 -507 130 -186 0 -387 39 -566 110 -124 50 -115 53
-189 -58 -300 -449 -254 -1037 114 -1439 61 -67 64 -134 8 -197 -52 -60 -127
-69 -191 -24 -36 25 -133 144 -190 233 -97 150 -172 336 -203 501 -9 49 -18
99 -21 110 -3 18 -15 23 -79 33 -218 32 -479 -10 -677 -110 -49 -25 -70 -30
-105 -26 -122 14 -175 155 -89 240 39 39 183 105 311 142 156 45 261 57 460
53 l180 -3 3 25 c25 226 152 530 288 693 l23 28 -112 112 c-117 117 -208 239
-271 365 l-36 72 -58 -38 c-142 -97 -339 -177 -524 -214 -168 -33 -442 -29
-568 8 -13 3 -19 -14 -32 -83 -90 -470 -425 -876 -875 -1059 -165 -66 -293
-93 -513 -104 -102 -5 -221 -16 -266 -25 -204 -39 -382 -129 -571 -290 -66
-55 -105 -64 -167 -37 -64 29 -88 71 -83 142 4 53 6 56 79 125 130 123 308
229 491 294 136 48 272 72 467 81 172 9 283 23 310 40 19 12 -4 45 -99 140
-119 120 -287 228 -426 274 -101 33 -145 81 -145 158 0 69 70 138 142 138 48
0 160 -40 272 -98 203 -104 386 -265 532 -467 l20 -29 55 37 c265 176 444 454
495 766 8 51 14 94 12 96 -2 1 -39 21 -83 44 -175 93 -358 248 -370 314 -16
86 34 163 113 174 62 8 83 -1 167 -72 155 -132 308 -215 482 -263 90 -24 114
-26 293 -26 183 -1 201 1 295 27 120 33 296 117 385 184 62 47 65 51 63 88
-15 319 -16 298 6 333 45 70 121 90 192 50 52 -29 79 -85 79 -165 0 -198 91
-463 218 -636 180 -244 449 -410 742 -456 l49 -8 6 46 c28 200 118 433 235
606 74 109 174 220 215 239 94 45 205 -25 205 -129 0 -47 -13 -68 -115 -190
-122 -146 -230 -387 -247 -554 l-3 -35 80 -13 c171 -29 378 -106 520 -195 93
-59 211 -155 286 -235 70 -75 173 -213 211 -282 15 -27 21 -30 50 -25 241 44
437 143 621 313 109 101 144 114 214 80 56 -28 86 -73 85 -129 -1 -55 -21 -87
-106 -168 -181 -172 -390 -289 -626 -352 -74 -20 -104 -32 -102 -41 42 -171
46 -208 46 -399 0 -159 -4 -213 -21 -292 -32 -147 -62 -232 -125 -358 -32 -63
-58 -115 -58 -116 0 -2 32 -19 72 -39 220 -113 416 -293 551 -507 63 -101 71
-138 38 -198 -20 -37 -88 -80 -128 -80 -55 0 -98 36 -169 142 -116 175 -259
301 -449 395 -122 61 -111 62 -201 -13 -43 -36 -133 -100 -199 -141 -66 -42
-149 -99 -184 -127 -133 -107 -251 -291 -305 -478 -55 -189 -56 -220 -56
-1192 l0 -896 273 0 274 0 26 128 c62 298 154 541 293 772 195 326 483 598
812 767 275 142 499 367 637 642 53 107 111 290 131 416 l17 110 60 75 c169
211 273 441 312 695 21 133 16 396 -10 515 -39 176 -107 343 -203 492 l-60 93
20 100 c27 133 29 387 4 525 -57 314 -230 623 -464 827 -139 121 -332 234
-475 279 -58 18 -59 19 -94 89 -128 254 -378 502 -638 633 -178 89 -377 140
-581 149 -117 6 -275 -7 -356 -28 -37 -9 -40 -8 -100 42 -177 147 -387 250
-628 305 -92 22 -442 28 -535 10z" fill="white"/>
</g>
</svg>
