<?xml version="1.0" standalone="no"?>
<!DOCTYPE svg PUBLIC "-//W3C//DTD SVG 20010904//EN"
 "http://www.w3.org/TR/2001/REC-SVG-20010904/DTD/svg10.dtd">
<svg version="1.0" xmlns="http://www.w3.org/2000/svg"
 width="1024.000000pt" height="1024.000000pt" viewBox="0 0 1024.000000 1024.000000"
 preserveAspectRatio="xMidYMid meet">
<metadata>
Created by potrace 1.16, written by Peter Selinger 2001-2019
</metadata>
<g transform="translate(0.000000,1024.000000) scale(0.100000,-0.100000)"
fill="#000000" stroke="none">
<path d="M4905 10009 c-1141 -44 -2237 -497 -3090 -1276 -709 -648 -1216
-1499 -1446 -2428 -163 -659 -187 -1366 -69 -2044 365 -2091 2078 -3726 4185
-3995 402 -51 868 -51 1270 0 1130 144 2192 695 2966 1537 748 814 1185 1815
1280 2932 14 167 14 603 0 770 -55 644 -212 1216 -490 1780 -578 1172 -1598
2064 -2831 2475 -584 195 -1143 273 -1775 249z m720 -74 c272 -29 573 -87 831
-161 222 -63 261 -79 338 -141 285 -229 564 -495 699 -663 99 -124 211 -291
201 -300 -5 -4 -38 -20 -74 -35 -250 -104 -568 -294 -959 -573 l-153 -110
-102 48 c-471 222 -1041 363 -1856 460 -140 17 -257 34 -261 38 -4 4 -65 97
-136 207 -219 340 -335 496 -485 651 -48 50 -88 93 -88 96 0 9 114 76 219 128
306 152 670 262 1176 356 117 22 149 24 320 19 105 -3 253 -12 330 -20z m-900
3 c-22 -6 -110 -27 -195 -48 -415 -103 -734 -232 -981 -396 -39 -26 -127 -68
-220 -102 -481 -183 -973 -433 -1451 -738 -53 -34 -69 -40 -77 -30 -9 10 13
35 96 108 772 681 1697 1092 2704 1202 148 16 177 17 124 4z m2308 -370 c914
-390 1721 -1095 2237 -1954 124 -207 282 -525 356 -719 4 -9 -24 7 -62 36 -82
62 -197 120 -289 144 l-66 18 -73 106 c-95 138 -200 273 -344 441 -126 148
-654 681 -877 885 -120 111 -151 145 -216 244 -41 64 -113 163 -159 221 -108
135 -349 375 -515 515 -71 60 -134 113 -140 118 -13 13 2 7 148 -55z m-5353
-1181 c-216 -429 -327 -796 -361 -1194 l-12 -138 -91 -95 c-351 -365 -645
-902 -806 -1471 -22 -77 -42 -144 -45 -150 -4 -5 -24 -9 -45 -9 l-39 0 5 73
c20 283 59 556 115 802 190 838 621 1635 1221 2260 179 186 186 175 58 -78z
m2835 28 c828 -98 1406 -240 1876 -461 l97 -46 20 -57 c147 -408 491 -1350
561 -1534 50 -132 91 -243 91 -249 0 -25 -372 -479 -602 -734 -310 -345 -899
-914 -947 -914 -13 0 -207 32 -430 71 -223 38 -684 117 -1024 174 -339 57
-621 106 -626 110 -6 3 -45 67 -89 143 -401 697 -592 1299 -592 1868 l0 161
82 99 c124 151 286 330 502 555 226 235 846 839 861 839 6 0 105 -11 220 -25z
m4834 -1418 c89 -36 196 -107 272 -179 53 -50 59 -60 92 -163 310 -949 329
-1921 58 -2880 -35 -125 -115 -362 -125 -372 -2 -2 -35 16 -73 41 -71 45 -291
158 -329 168 -19 5 -22 16 -28 119 -42 694 -93 1100 -186 1469 -30 119 -104
342 -138 418 l-19 43 29 77 c80 206 171 570 278 1117 36 185 37 186 68 179 15
-4 60 -20 101 -37z m-7844 8 c201 -29 398 -45 755 -60 201 -8 404 -18 451 -21
l86 -7 6 -201 c6 -226 27 -379 82 -603 97 -394 277 -816 531 -1250 30 -51 54
-97 54 -104 0 -6 -13 -28 -28 -48 -58 -73 -191 -270 -279 -411 -173 -278 -315
-549 -503 -960 l-117 -255 -119 -3 c-165 -4 -548 15 -673 34 -268 40 -489 128
-669 267 -103 79 -296 419 -406 714 -93 252 -189 635 -251 1002 l-26 154 27
106 c106 426 297 858 531 1201 106 155 181 247 302 373 82 84 98 97 120 92 14
-2 71 -11 126 -20z m6090 -1080 c583 -158 936 -242 1205 -289 33 -6 37 -10 69
-94 150 -380 234 -857 286 -1621 24 -358 49 -280 -193 -606 -405 -548 -528
-700 -742 -916 -144 -146 -265 -247 -364 -303 -52 -30 -217 -46 -474 -46 -473
0 -887 91 -1314 288 -103 47 -88 3 -123 377 -75 792 -133 1162 -245 1559 l-31
110 23 21 c13 12 84 78 158 146 306 281 607 590 890 914 123 141 370 443 425
522 17 24 32 43 35 43 3 0 181 -48 395 -105z m-6490 -2620 c134 -96 318 -173
513 -215 150 -33 334 -48 660 -56 l300 -7 209 -271 c322 -419 413 -526 618
-732 188 -188 326 -307 499 -427 138 -97 128 -82 111 -152 -39 -165 -42 -394
-9 -703 9 -79 14 -146 11 -148 -2 -2 -39 -11 -81 -19 -289 -55 -676 44 -1117
286 -693 379 -1244 877 -1703 1535 l-56 82 30 10 c16 6 30 14 30 17 0 3 -18
58 -39 123 -61 180 -84 319 -85 497 -1 163 9 250 26 239 6 -4 44 -30 83 -59z
m5175 -1108 c237 -88 483 -148 730 -179 115 -14 606 -18 704 -5 l58 7 -6 -102
c-22 -328 -81 -576 -184 -773 l-50 -93 87 -7 c47 -4 90 -7 94 -9 5 -1 -49 -36
-120 -78 -757 -449 -1597 -679 -2483 -678 -313 1 -467 22 -695 97 -151 49
-300 138 -331 197 -22 41 -48 325 -49 526 0 198 20 366 48 404 14 19 214 95
567 216 479 165 671 242 907 365 123 64 295 172 372 233 l24 19 101 -47 c56
-26 157 -68 226 -93z" fill="white"/>
</g>
</svg>
