<?xml version="1.0" standalone="no"?>
<!DOCTYPE svg PUBLIC "-//W3C//DTD SVG 20010904//EN"
 "http://www.w3.org/TR/2001/REC-SVG-20010904/DTD/svg10.dtd">
<svg version="1.0" xmlns="http://www.w3.org/2000/svg"
 width="2000.000000pt" height="2000.000000pt" viewBox="0 0 2000.000000 2000.000000"
 preserveAspectRatio="xMidYMid meet">
<metadata>
Created by potrace 1.16, written by Peter Selinger 2001-2019
</metadata>
<g transform="translate(0.000000,2000.000000) scale(0.100000,-0.100000)"
fill="#000000" stroke="none">
<path d="M5852 17752 c-665 -226 -723 -248 -719 -267 3 -11 53 -130 112 -265
167 -385 475 -1169 475 -1211 0 -5 -1128 -9 -2860 -9 l-2860 0 0 -665 0 -665
1073 0 1073 0 13 -62 c7 -35 39 -169 71 -298 388 -1552 1118 -3022 2123 -4280
172 -214 405 -484 565 -651 l73 -77 -138 -84 c-1379 -843 -2911 -1496 -4525
-1928 -142 -38 -274 -72 -293 -76 -19 -3 -35 -10 -35 -15 0 -5 90 -143 199
-308 223 -336 412 -636 554 -881 53 -91 100 -172 105 -180 8 -13 37 -6 198 49
1404 473 2924 1176 4289 1984 121 71 338 204 483 294 l263 164 137 -89 c872
-567 1763 -1031 2727 -1417 286 -115 665 -255 688 -255 12 0 528 1298 527
1327 0 6 -24 19 -52 28 -119 39 -497 183 -708 270 -693 286 -1406 653 -2022
1042 l-117 74 123 137 c1149 1271 2010 2822 2492 4487 59 201 184 698 184 727
0 17 51 18 965 18 l965 0 0 665 0 665 -2345 0 c-2007 0 -2345 2 -2345 14 0 26
-89 291 -140 416 -77 187 -448 1222 -544 1518 -12 36 -23 52 -34 51 -9 0 -342
-111 -740 -247z m2678 -3097 c0 -8 -14 -78 -30 -155 -294 -1379 -903 -2601
-1829 -3670 -132 -152 -570 -602 -581 -598 -4 2 -73 73 -155 158 -1092 1141
-1863 2538 -2249 4076 -25 100 -46 187 -46 193 0 8 641 11 2445 11 2141 0
2445 -2 2445 -15z" fill="white"/>
<path d="M11272 7763 c-1250 -3151 -2272 -5731 -2272 -5735 0 -5 336 -8 748
-8 828 0 795 -2 932 67 92 47 208 158 267 256 25 42 232 557 549 1362 l509
1294 2495 1 2495 0 465 -1288 c255 -708 479 -1315 496 -1349 68 -132 166 -235
282 -296 133 -70 100 -68 971 -67 432 0 787 3 789 5 3 3 -598 1525 -1336 3382
-737 1858 -1762 4441 -2278 5741 l-937 2362 -952 0 -952 0 -2271 -5727z m3243
3901 c14 -78 140 -502 219 -739 46 -137 453 -1230 905 -2429 452 -1198 820
-2180 818 -2182 -3 -3 -3907 -11 -3907 -7 0 1 356 946 791 2100 435 1154 834
2224 886 2378 94 281 200 635 244 818 12 53 26 97 30 97 4 0 10 -16 14 -36z" fill="white"/>
</g>
</svg>
