<?xml version="1.0" standalone="no"?>
<!DOCTYPE svg PUBLIC "-//W3C//DTD SVG 20010904//EN"
 "http://www.w3.org/TR/2001/REC-SVG-20010904/DTD/svg10.dtd">
<svg version="1.0" xmlns="http://www.w3.org/2000/svg"
 width="480.000000pt" height="480.000000pt" viewBox="0 0 480.000000 480.000000"
 preserveAspectRatio="xMidYMid meet">
<metadata>
Created by potrace 1.16, written by Peter Selinger 2001-2019
</metadata>
<g transform="translate(0.000000,480.000000) scale(0.100000,-0.100000)"
fill="#000000" stroke="none">
<path d="M1460 4699 c-423 -47 -809 -271 -1068 -617 -340 -456 -395 -1085
-140 -1597 223 -448 633 -751 1132 -837 103 -17 148 -19 296 -15 258 8 433 52
652 164 150 76 265 160 388 283 216 216 354 469 422 777 19 83 22 130 23 308
0 236 -14 323 -81 518 -234 670 -913 1095 -1624 1016z m470 -127 c869 -203
1356 -1099 1039 -1917 -73 -190 -183 -357 -331 -502 -242 -240 -530 -376 -878
-413 -279 -31 -615 47 -865 200 -339 207 -575 536 -666 930 -29 121 -36 383
-15 510 103 627 565 1092 1196 1206 111 20 409 12 520 -14z" fill="white"/>
<path d="M1430 4405 c-101 -16 -225 -54 -327 -100 -250 -115 -493 -358 -608
-608 -219 -482 -120 -1043 250 -1412 182 -183 411 -303 664 -350 109 -20 331
-20 447 0 441 77 825 410 965 837 16 50 36 129 44 176 20 111 19 336 0 443
-75 403 -333 737 -706 913 -215 102 -484 139 -729 101z m406 -111 c221 -39
416 -139 582 -299 111 -106 172 -187 237 -320 126 -254 156 -531 86 -795 -165
-620 -806 -988 -1418 -815 -110 31 -287 119 -373 184 -88 66 -215 200 -271
286 -129 196 -189 397 -189 629 0 195 35 347 116 510 61 122 121 205 218 302
270 270 637 385 1012 318z" fill="white"/>
<path d="M1467 4120 c-425 -72 -766 -444 -794 -867 l-6 -93 51 0 50 0 7 68
c43 435 364 755 798 797 l67 7 0 49 0 49 -62 -1 c-35 -1 -85 -5 -111 -9z"/>
<path d="M2825 1990 l-129 -129 69 -63 c38 -35 85 -77 105 -95 l35 -31 -21
-24 c-46 -50 -57 -114 -30 -166 8 -15 306 -318 663 -673 728 -726 687 -692
834 -692 137 0 248 72 305 197 21 47 27 73 27 136 0 149 31 112 -706 847 -712
711 -677 682 -765 655 -33 -10 -39 -9 -62 11 -14 13 -58 53 -99 90 -40 37 -79
67 -85 67 -6 0 -69 -58 -141 -130z m213 -75 l57 -54 -55 -56 c-30 -30 -58 -54
-61 -53 -4 2 -33 27 -64 57 l-57 54 53 53 c29 30 57 54 62 54 5 0 34 -25 65
-55z m869 -697 c347 -348 639 -649 649 -668 12 -23 18 -57 19 -101 0 -56 -4
-73 -30 -115 -40 -64 -107 -106 -180 -112 -67 -6 -140 26 -200 88 l-39 40 64
65 65 65 -530 530 -530 530 -65 -65 -66 -65 -57 58 c-31 32 -57 66 -57 77 0
27 278 305 305 305 13 0 232 -212 652 -632z m-262 -288 l449 -449 -24 -26 -24
-26 -453 453 -452 452 21 23 c12 13 24 23 27 23 3 0 208 -202 456 -450z" fill="white"/>
</g>
</svg>
