<?xml version="1.0" standalone="no"?>
<!DOCTYPE svg PUBLIC "-//W3C//DTD SVG 20010904//EN"
 "http://www.w3.org/TR/2001/REC-SVG-20010904/DTD/svg10.dtd">
<svg version="1.0" xmlns="http://www.w3.org/2000/svg"
 width="1024.000000pt" height="1024.000000pt" viewBox="0 0 1024.000000 1024.000000"
 preserveAspectRatio="xMidYMid meet">
<metadata>
Created by potrace 1.16, written by Peter Selinger 2001-2019
</metadata>
<g transform="translate(0.000000,1024.000000) scale(0.100000,-0.100000)"
fill="#000000" stroke="none">
<path d="M310 5210 l0 -3550 4720 0 4720 0 0 3550 0 3550 -4720 0 -4720 0 0
-3550z m6635 1201 c-1629 -1627 -1713 -1710 -1780 -1742 -57 -28 -81 -34 -135
-34 -54 0 -78 6 -135 34 -67 32 -151 115 -1780 1742 l-1710 1709 3625 0 3625
0 -1710 -1709z m-4768 -2428 l-1227 -1228 0 2455 0 2455 1227 -1228 1228
-1227 -1228 -1227z m6933 1225 l0 -2453 -1227 1227 -1228 1228 1225 1225 c674
674 1226 1225 1227 1225 2 0 3 -1104 3 -2452z m-5000 -704 c313 -314 432 -400
648 -468 283 -89 572 -37 847 151 52 36 170 145 338 312 l257 256 1228 -1228
1227 -1227 -3625 0 -3625 0 1225 1225 c674 674 1227 1225 1230 1225 3 0 115
-111 250 -246z" fill="#f76b50"/>
</g>
</svg>
