<?xml version="1.0" standalone="no"?>
<!DOCTYPE svg PUBLIC "-//W3C//DTD SVG 20010904//EN"
 "http://www.w3.org/TR/2001/REC-SVG-20010904/DTD/svg10.dtd">
<svg version="1.0" xmlns="http://www.w3.org/2000/svg"
 width="225.000000pt" height="225.000000pt" viewBox="0 0 225.000000 225.000000"
 preserveAspectRatio="xMidYMid meet">
<metadata>
Created by potrace 1.16, written by Peter Selinger 2001-2019
</metadata>
<g transform="translate(0.000000,225.000000) scale(0.100000,-0.100000)"
fill="#000000" stroke="none">
<path d="M1634 2231 c-27 -16 -47 -56 -148 -292 -94 -218 -116 -280 -112 -304
7 -36 38 -67 189 -189 59 -48 107 -93 107 -99 0 -20 -78 -156 -138 -242 -72
-103 -284 -315 -387 -387 -85 -59 -222 -138 -241 -138 -6 0 -51 48 -99 108
-126 153 -154 181 -191 188 -25 5 -77 -14 -270 -96 -307 -131 -311 -134 -331
-175 -16 -33 -14 -41 42 -287 32 -139 64 -262 72 -274 28 -43 63 -49 227 -36
330 26 635 121 902 283 572 345 930 925 986 1596 13 158 5 209 -35 236 -20 13
-494 127 -528 127 -8 0 -28 -9 -45 -19z" fill="#f76b50"/>
</g>
</svg>
